HIERARCHY
ROOT Hips
{
	OFFSET 0.00000 0.00000 0.00000
	CHANNELS 6 Xposition Yposition Zposition Zrotation Yrotation Xrotation 
	JOINT LHipJoint
	{
		OFFSET 0 0 0
		CHANNELS 3 Zrotation Yrotation Xrotation
		JOINT LeftUpLeg
		{
			OFFSET 1.62329 -1.80800 0.67318
			CHANNELS 3 Zrotation Yrotation Xrotation
			JOINT LeftLeg
			{
				OFFSET 2.57139 -7.06484 0.00000
				CHANNELS 3 Zrotation Yrotation Xrotation
				JOINT LeftFoot
				{
					OFFSET 2.52017 -6.92413 0.00000
					CHANNELS 3 Zrotation Yrotation Xrotation
					JOINT LeftToeBase
					{
						OFFSET 0.23295 -0.64001 2.10214
						CHANNELS 3 Zrotation Yrotation Xrotation
						End Site
						{
							OFFSET 0.00000 -0.00000 1.10139
						}
					}
				}
			}
		}
	}
	JOINT RHipJoint
	{
		OFFSET 0 0 0
		CHANNELS 3 Zrotation Yrotation Xrotation
		JOINT RightUpLeg
		{
			OFFSET -1.48061 -1.80800 0.67318
			CHANNELS 3 Zrotation Yrotation Xrotation
			JOINT RightLeg
			{
				OFFSET -2.63258 -7.23296 0.00000
				CHANNELS 3 Zrotation Yrotation Xrotation
				JOINT RightFoot
				{
					OFFSET -2.54779 -7.00000 0.00000
					CHANNELS 3 Zrotation Yrotation Xrotation
					JOINT RightToeBase
					{
						OFFSET -0.23067 -0.63376 2.12161
						CHANNELS 3 Zrotation Yrotation Xrotation
						End Site
						{
							OFFSET -0.00000 -0.00000 1.11000
						}
					}
				}
			}
		}
	}
	JOINT LowerBack
	{
		OFFSET 0 0 0
		CHANNELS 3 Zrotation Yrotation Xrotation
		JOINT Spine
		{
			OFFSET -0.02108 2.07573 -0.16981
			CHANNELS 3 Zrotation Yrotation Xrotation
			JOINT Spine1
			{
				OFFSET 0.05070 2.08439 -0.03141
				CHANNELS 3 Zrotation Yrotation Xrotation
				JOINT Neck
				{
					OFFSET 0 0 0
					CHANNELS 3 Zrotation Yrotation Xrotation
					JOINT Neck1
					{
						OFFSET -0.10731 1.60408 0.31370
						CHANNELS 3 Zrotation Yrotation Xrotation
						JOINT Head
						{
							OFFSET 0.08411 1.65679 -0.30822
							CHANNELS 3 Zrotation Yrotation Xrotation
							End Site
							{
								OFFSET 0.03911 1.69149 -0.14146
							}
						}
					}
				}
				JOINT LeftShoulder
				{
					OFFSET 0 0 0
					CHANNELS 3 Zrotation Yrotation Xrotation
					JOINT LeftArm
					{
						OFFSET 3.52315 0.73219 -0.54694
						CHANNELS 3 Zrotation Yrotation Xrotation
						JOINT LeftForeArm
						{
							OFFSET 5.32462 -0.00000 -0.00000
							CHANNELS 3 Zrotation Yrotation Xrotation
							JOINT LeftHand
							{
								OFFSET 3.48402 -0.00000 -0.00000
								CHANNELS 3 Zrotation Yrotation Xrotation
								JOINT LeftFingerBase
								{
									OFFSET 0 0 0
									CHANNELS 3 Zrotation Yrotation Xrotation
									JOINT LeftHandIndex1
									{
										OFFSET 0.57248 -0.00000 -0.00000
										CHANNELS 3 Zrotation Yrotation Xrotation
										End Site
										{
											OFFSET 0.46154 -0.00000 -0.00000
										}
									}
								}
								JOINT LThumb
								{
									OFFSET 0 0 0
									CHANNELS 3 Zrotation Yrotation Xrotation
									End Site
									{
										OFFSET 0.46859 -0.00000 0.46859
									}
								}
							}
						}
					}
				}
				JOINT RightShoulder
				{
					OFFSET 0 0 0
					CHANNELS 3 Zrotation Yrotation Xrotation
					JOINT RightArm
					{
						OFFSET -3.41766 0.93592 -0.10019
						CHANNELS 3 Zrotation Yrotation Xrotation
						JOINT RightForeArm
						{
							OFFSET -5.33589 -0.00000 -0.00000
							CHANNELS 3 Zrotation Yrotation Xrotation
							JOINT RightHand
							{
								OFFSET -3.64134 -0.00000 -0.00000
								CHANNELS 3 Zrotation Yrotation Xrotation
								JOINT RightFingerBase
								{
									OFFSET 0 0 0
									CHANNELS 3 Zrotation Yrotation Xrotation
									JOINT RightHandIndex1
									{
										OFFSET -0.73481 -0.00000 -0.00000
										CHANNELS 3 Zrotation Yrotation Xrotation
										End Site
										{
											OFFSET -0.59242 -0.00000 -0.00000
										}
									}
								}
								JOINT RThumb
								{
									OFFSET 0 0 0
									CHANNELS 3 Zrotation Yrotation Xrotation
									End Site
									{
										OFFSET -0.60147 -0.00000 0.60147
									}
								}
							}
						}
					}
				}
			}
		}
	}
}
MOTION
Frames: 10
Frame Time: .0083333
0.7176 15.8410 -3.5822 3.1107 8.8463 346.6270 0.0000 0.0000 0.0000 -14.2632 9.2208 -52.9592 16.7652 19.7473 80.5037 0.5097 -6.3719 17.3082 0.2181 -3.0064 -8.2967 0.0000 0.0000 0.0000 3.4628 -4.9200 -83.0055 -35.8576 -12.3475 143.0272 -0.1769 1.1541 -7.6209 -0.0326 -1.1658 3.2050 -0.2366 -3.2565 20.0241 0.9388 -4.2070 11.2282 1.9024 -2.1337 1.0569 -10.4757 -1.7653 -12.0982 3.7755 -1.0295 35.7313 3.2496 -1.3318 14.4023 0.0000 -0.0000 0.0000 -86.2565 -11.9590 37.7193 47.7918 -52.0651 -24.4214 -0.0000 -0.0000 5.5145 17.2013 18.0645 5.4834 -7.1250 0.0000 -0.0000 -10.5626 48.5428 -0.9326 0.0000 -0.0000 0.0000 59.1683 -23.3915 71.7515 -57.3912 55.5737 -32.1796 0.0000 0.0000 15.3211 -40.3955 6.2402 -5.2844 7.1250 -0.0000 -0.0000 -9.9216 -21.8521 -5.5983
0.7047 15.8335 -3.5925 3.4468 9.1613 346.3900 0.0000 0.0000 0.0000 -14.2127 9.0518 -53.2596 17.3650 19.8327 82.2751 0.5051 -6.6592 17.4930 0.1866 -2.7821 -7.6728 0.0000 0.0000 0.0000 3.0137 -5.4671 -82.8743 -35.8788 -12.3199 143.1267 -0.1725 1.2086 -7.5118 -0.0389 -1.2728 3.4997 -0.5892 -3.1714 20.1765 0.8765 -4.1524 11.1853 2.0347 -2.1186 0.9527 -10.6338 -1.7833 -11.9289 4.1030 -1.1481 35.2935 3.3811 -1.3463 14.1728 -0.0000 0.0000 0.0000 -86.1690 -11.8753 37.7632 48.0712 -52.1873 -24.6420 -0.0000 -0.0000 5.8462 16.6423 17.8382 5.2318 -7.1250 0.0000 -0.0000 -11.0193 48.2326 -0.8888 -0.0000 0.0000 0.0000 58.8714 -23.4264 72.0381 -57.6066 55.6377 -32.3574 0.0000 0.0000 14.8930 -40.0497 6.8237 -5.7034 7.1250 -0.0000 -0.0000 -9.5854 -21.1456 -5.5590
0.6937 15.8287 -3.6039 3.3934 9.2875 346.1920 0.0000 0.0000 0.0000 -13.6947 8.9941 -53.7181 17.9880 19.9027 84.1081 0.4472 -7.4818 17.5333 0.2606 -3.2840 -9.0705 0.0000 0.0000 0.0000 3.1225 -5.5170 -82.7485 -35.8797 -12.3188 143.1306 -0.1702 0.9468 -7.5142 -0.0386 -1.2679 3.4863 -0.4681 -3.1274 20.2021 0.8690 -4.0732 11.2021 1.9454 -2.0722 0.9455 -10.7106 -1.8129 -12.0392 4.3579 -1.2436 35.0001 3.4768 -1.3537 14.0722 -0.0000 0.0000 0.0000 -86.0341 -11.9398 37.7800 48.3466 -52.3065 -24.8598 -0.0000 -0.0000 6.0281 16.2410 17.5912 5.0313 -7.1250 0.0000 -0.0000 -11.3190 47.9263 -0.8271 -0.0000 0.0000 0.0000 58.7031 -23.3269 72.1662 -57.7223 55.6718 -32.4529 0.0000 0.0000 14.6255 -39.4831 7.5531 -6.1805 7.1250 -0.0000 -0.0000 -9.0743 -20.2887 -5.4325
0.6814 15.8226 -3.6163 3.1991 9.3016 345.9810 0.0000 0.0000 0.0000 -12.9442 9.0512 -54.2133 18.6355 19.9553 86.0076 0.3624 -8.3633 17.3592 0.3684 -3.8990 -10.7926 0.0000 0.0000 0.0000 3.4279 -5.2706 -82.5956 -35.8746 -12.3254 143.1070 -0.1703 0.6628 -7.5864 -0.0416 -1.3161 3.6190 -0.2013 -3.0880 20.1659 0.8915 -3.9766 11.2676 1.7976 -2.0121 1.0145 -10.7608 -1.8669 -12.2957 4.4562 -1.3082 34.8286 3.5123 -1.3678 14.0589 -0.0000 0.0000 0.0000 -85.8986 -12.1027 37.7344 48.5236 -52.3824 -24.9999 -0.0000 -0.0000 6.3293 16.8309 17.4094 5.1717 -7.1250 0.0000 -0.0000 -10.7098 47.8255 -0.7548 -0.0000 0.0000 0.0000 58.5905 -23.1507 72.2036 -57.7594 55.6827 -32.4835 0.0000 0.0000 14.5817 -39.1660 8.2925 -6.7007 7.1250 -0.0000 -0.0000 -8.7402 -19.3973 -5.4042
0.6731 15.8248 -3.6209 3.4384 9.2577 345.7940 0.0000 0.0000 0.0000 -12.6788 9.2904 -54.4708 19.2407 19.9862 87.7795 0.3225 -8.5954 17.1050 0.3577 -3.8423 -10.6334 0.0000 0.0000 0.0000 3.1404 -5.1930 -82.2918 -35.8736 -12.3268 143.1021 -0.1740 0.8795 -7.6159 -0.0459 -1.3834 3.8044 -0.3353 -2.9396 20.0321 0.8042 -3.8092 11.3238 1.7403 -1.9324 1.1393 -10.7789 -1.9405 -12.3999 4.4697 -1.3994 34.6236 3.5011 -1.3999 13.9993 -0.0000 0.0000 0.0000 -85.7864 -12.1039 37.7460 48.7751 -52.4894 -25.1992 -0.0000 -0.0000 6.6742 17.5230 17.6253 5.4611 -7.1250 0.0000 -0.0000 -10.1241 48.1432 -0.7926 -0.0000 0.0000 0.0000 58.4937 -23.1008 72.1963 -57.9172 55.7289 -32.6139 0.0000 0.0000 14.2971 -38.6775 9.0276 -7.1593 7.1250 -0.0000 -0.0000 -8.2902 -18.5438 -5.2788
0.6683 15.8368 -3.6157 4.2277 9.2645 345.6150 0.0000 0.0000 0.0000 -13.0982 9.6413 -54.4112 19.8025 19.9991 89.4225 0.2674 -8.7358 16.5541 0.3396 -3.7447 -10.3596 0.0000 0.0000 0.0000 2.1543 -5.5220 -81.8702 -35.8820 -12.3158 143.1415 -0.1754 1.4243 -7.5384 -0.0325 -1.1639 3.1998 -0.9965 -2.7063 19.8115 0.5401 -3.6192 11.4083 1.7828 -1.8623 1.3595 -10.7366 -2.0045 -12.4557 4.4998 -1.5059 34.4624 3.4850 -1.4306 13.9488 0.0000 -0.0000 0.0000 -85.6393 -11.9664 37.7141 49.1752 -52.6574 -25.5170 -0.0000 -0.0000 7.0708 17.2069 18.2930 5.5518 -7.1250 0.0000 -0.0000 -10.6294 48.7753 -1.0001 0.0000 -0.0000 0.0000 58.4547 -23.0630 72.1967 -58.1147 55.7863 -32.7772 0.0000 0.0000 13.7286 -37.6758 9.8162 -7.5000 7.1250 -0.0000 -0.0000 -7.4828 -17.7115 -4.8937
0.6519 15.8948 -3.6394 4.6310 9.2976 345.3960 0.0000 0.0000 0.0000 -13.1661 9.9223 -54.3107 20.2735 19.9982 90.7996 0.1836 -9.1709 15.9239 0.4207 -4.1630 -11.5358 0.0000 0.0000 0.0000 1.8954 -5.6615 -81.0938 -35.8025 -12.4187 142.7702 -0.1766 1.6742 -7.5286 -0.0311 -1.1391 3.1317 -1.3311 -2.5534 19.6802 0.3651 -3.4751 11.5203 1.7498 -1.8026 1.5516 -10.6088 -2.0609 -12.5874 4.4875 -1.6009 34.2874 3.4381 -1.4503 13.9063 -0.0000 0.0000 0.0000 -85.4555 -11.9813 37.6123 49.3906 -52.7468 -25.6883 -0.0000 -0.0000 7.5463 16.8794 18.8593 5.6018 -7.1250 0.0000 -0.0000 -11.1252 49.2992 -1.1927 -0.0000 0.0000 0.0000 58.5215 -22.9127 72.1283 -58.1135 55.7859 -32.7762 0.0000 0.0000 13.6758 -36.9853 10.5794 -7.8728 7.1250 -0.0000 -0.0000 -6.8996 -16.8796 -4.6330
0.6410 15.8922 -3.6496 4.7090 9.4377 345.2450 0.0000 0.0000 0.0000 -12.7869 9.9180 -54.6969 20.8739 19.9817 92.5560 0.1315 -9.4516 15.5273 0.4360 -4.2371 -11.7446 0.0000 0.0000 0.0000 1.8103 -5.7746 -80.9147 -35.8006 -12.4212 142.7613 -0.1672 1.7715 -7.3080 -0.0460 -1.3845 3.8074 -1.3695 -2.5096 19.5862 0.3104 -3.4226 11.5881 1.6975 -1.7773 1.6696 -10.6141 -2.0981 -12.7762 4.5390 -1.6457 34.1091 3.4484 -1.4568 13.8730 -0.0000 -0.0000 0.0000 -85.3438 -12.1383 37.4596 49.3990 -52.7502 -25.6949 -0.0000 -0.0000 7.9253 17.3463 18.2573 5.5889 -7.1250 0.0000 -0.0000 -10.4858 48.7598 -0.9823 -0.0000 -0.0000 0.0000 58.4526 -22.6744 72.1090 -58.0283 55.7612 -32.7057 0.0000 0.0000 13.9980 -36.7337 11.3767 -8.3746 7.1250 -0.0000 -0.0000 -6.6145 -15.9480 -4.5735
0.6302 15.8850 -3.6592 4.8689 9.6894 345.0760 0.0000 0.0000 0.0000 -12.5249 9.8341 -54.9935 21.4815 19.9473 94.3351 0.0982 -9.6037 15.2344 0.3913 -4.0165 -11.1231 0.0000 0.0000 0.0000 1.5782 -6.0524 -80.8254 -35.8022 -12.4190 142.7692 -0.1531 1.8815 -6.9747 -0.0553 -1.5174 4.1737 -1.5089 -2.4814 19.6630 0.2586 -3.4070 11.5937 1.7219 -1.7735 1.6420 -10.6977 -2.1398 -12.9876 4.5722 -1.6658 34.0006 3.4710 -1.4668 13.8758 -0.0000 0.0000 0.0000 -85.3154 -12.2041 37.3061 49.5009 -52.7922 -25.7761 -0.0000 -0.0000 8.1960 18.1060 17.3113 5.5570 -7.1250 0.0000 -0.0000 -9.4821 47.9058 -0.6856 -0.0000 0.0000 0.0000 58.3266 -22.5383 72.0698 -57.9863 55.7490 -32.6710 0.0000 0.0000 14.3182 -36.4160 12.1729 -8.8416 7.1250 -0.0000 -0.0000 -6.2855 -15.0363 -4.4670
0.6166 15.8790 -3.6686 4.9302 9.9014 344.9100 0.0000 0.0000 0.0000 -12.1470 9.8210 -55.3277 22.1109 19.8928 96.1825 0.0611 -9.8184 14.9565 0.3298 -3.6909 -10.2087 0.0000 0.0000 0.0000 1.5302 -6.2329 -80.7055 -35.8010 -12.4206 142.7633 -0.1454 2.0334 -6.7834 -0.0556 -1.5211 4.1840 -1.6090 -2.4660 19.7594 0.2334 -3.4025 11.5755 1.7558 -1.7739 1.5783 -10.7180 -2.1551 -13.2094 4.5340 -1.6394 33.8800 3.4598 -1.4577 13.8694 -0.0000 0.0000 0.0000 -85.2970 -12.1564 37.1214 49.6623 -52.8584 -25.9047 -0.0000 -0.0000 8.3784 18.4342 17.2559 5.6468 -7.1250 0.0000 -0.0000 -9.1569 47.8958 -0.6594 -0.0000 0.0000 0.0000 58.1508 -22.4001 72.1558 -57.9502 55.7385 -32.6411 0.0000 0.0000 14.6890 -36.0211 12.8129 -9.1600 7.1250 -0.0000 -0.0000 -5.9282 -14.3336 -4.2995
